<svg xmlns="http://www.w3.org/2000/svg" viewBox="0 0 64 64" role="img" aria-labelledby="title desc">
  <title id="title">KnowWings blue wing mark</title>
  <desc id="desc">A white geometric K with a layered blue wing on a deep navy rounded square.</desc>
  <defs>
    <linearGradient id="bg" x1="8" y1="56" x2="56" y2="8" gradientUnits="userSpaceOnUse">
      <stop offset="0" stop-color="#071426"/>
      <stop offset="0.62" stop-color="#0B2F73"/>
      <stop offset="1" stop-color="#0F5BFF"/>
    </linearGradient>
    <linearGradient id="wingTop" x1="27" y1="35" x2="55" y2="11" gradientUnits="userSpaceOnUse">
      <stop offset="0" stop-color="#0F5BFF"/>
      <stop offset="0.55" stop-color="#3A8DFF"/>
      <stop offset="1" stop-color="#9FD7FF"/>
    </linearGradient>
    <linearGradient id="wingBottom" x1="28" y1="42" x2="51" y2="24" gradientUnits="userSpaceOnUse">
      <stop offset="0" stop-color="#0A47C9"/>
      <stop offset="0.6" stop-color="#2D7DFF"/>
      <stop offset="1" stop-color="#7FC4FF"/>
    </linearGradient>
    <linearGradient id="k" x1="15" y1="17" x2="42" y2="52" gradientUnits="userSpaceOnUse">
      <stop offset="0" stop-color="#FFFFFF"/>
      <stop offset="1" stop-color="#DDE9FF"/>
    </linearGradient>
  </defs>
  <rect x="2" y="2" width="60" height="60" rx="15" fill="url(#bg)"/>
  <path fill="url(#k)" d="M15 17h8v14.1L35.6 18h10.2L31.5 32.7 47.5 49H36.7L23 35.3V49h-8z"/>
  <path fill="url(#wingTop)" d="M23 31.8C31.6 21 42.9 18.9 55 10c-.3 8.9-4.7 16.2-11.6 20.4-5.3 3.2-11.8 4.7-20.4 5.3 1.2-1.6 2.2-2.9 3.2-3.9-1.1.1-2.2.1-3.2 0z"/>
  <path fill="url(#wingBottom)" d="M25 38.2c8.2-6.5 17.1-7.2 26.6-14.2-1.3 7.5-5.4 13-11.6 16.1-4.4 2.2-9.5 3.2-15 3.7.8-1.9 1.6-3.8 2.4-5.5-.8 0-1.6 0-2.4-.1z" opacity=".98"/>
</svg>
